<svg width="14" height="14" viewBox="0 0 14 14" fill="none" xmlns="http://www.w3.org/2000/svg">
<path d="M13.5887 1.63954C13.0797 1.92095 12.54 2.10577 11.9873 2.18787C12.5698 1.7524 13.0058 1.06705 13.214 0.259542C12.6673 0.666208 12.068 0.951208 11.4433 1.10537C11.0237 0.544191 10.4676 0.172011 9.8613 0.0466956C9.25503 -0.0786197 8.63263 0.0499509 8.09084 0.412419C7.54906 0.774887 7.11826 1.35094 6.86541 2.05104C6.61256 2.75113 6.55183 3.53602 6.69267 4.28371C5.58407 4.21425 4.49955 3.85414 3.50952 3.22676C2.51949 2.59938 1.64609 1.71875 0.946 0.642042C0.698193 1.17408 0.56797 1.7789 0.568667 2.39454C0.568667 3.60287 1.06067 4.67037 1.80867 5.29537C1.36601 5.27795 0.933088 5.12852 0.546 4.85954V4.90287C0.546134 5.70762 0.768913 6.48755 1.17657 7.11042C1.58422 7.73329 2.15165 8.16077 2.78267 8.32037C2.37174 8.45957 1.94087 8.48009 1.52267 8.38037C1.70058 9.07307 2.04734 9.67887 2.51439 10.113C2.98145 10.5471 3.54542 10.7877 4.12733 10.8012C3.54899 11.369 2.88679 11.7887 2.17859 12.0363C1.47039 12.284 0.730085 12.3548 0 12.2445C1.27447 13.2691 2.75806 13.813 4.27333 13.8112C9.402 13.8112 12.2067 8.50037 12.2067 3.89454C12.2067 3.74454 12.2033 3.59287 12.198 3.44454C12.7439 2.95135 13.2151 2.34039 13.5893 1.64037L13.5887 1.63954Z" fill="#293FCC"/>
</svg>
